<?xml version="1.0" encoding="utf-8"?>
<!-- Generator: Adobe Illustrator 22.0.1, SVG Export Plug-In . SVG Version: 6.00 Build 0)  -->
<svg version="1.1" id="Layer_1" xmlns="http://www.w3.org/2000/svg" xmlns:xlink="http://www.w3.org/1999/xlink" x="0px" y="0px"
	 viewBox="0 0 345.1 85" style="enable-background:new 0 0 345.1 85;" xml:space="preserve">
<style type="text/css">
	.st0{fill:#FFFFFF;}
	.st1{font-family:'BeyondTheMountains';}
	.st2{font-size:39px;}
	.st3{letter-spacing:6;}
</style>
<title>Untitled-1</title>
<path class="st0" d="M170.7,59.8c-0.1,0.5-0.1,1-0.1,1.4c0,2.1,1.1,3.3,2.9,3.3c1.6,0,3.1-0.9,3.7-2.4h0.4c-0.7,1.7-2.3,2.7-4.1,2.7
	c-2.3,0-3.2-1.6-3.2-3.5c0-3.7,2-6.3,4.9-6.3c1.7-0.1,3.1,1.2,3.2,2.8c0,0.2,0,0.3,0,0.5c0,0.5-0.1,1-0.2,1.5H170.7z M177.8,59.5
	c0.1-0.4,0.1-0.8,0.1-1.2c0-1.6-0.7-3-2.9-3s-3.8,1.6-4.3,4.1L177.8,59.5z"/>
<path class="st0" d="M182.3,57.5c0.2-0.9,0.4-2.1,0.5-2.3h0.3c-0.1,0.4-0.2,1.2-0.5,2.4c0.7-1.5,2.2-2.5,3.9-2.6
	c1.5,0,3.1,0.8,2.4,3.8l-1.2,5.8h-0.3l1.3-6c0.4-1.9-0.1-3.3-2.1-3.3c-2.2,0-3.8,1.9-4.2,4.1l-1.1,5.2h-0.3L182.3,57.5z"/>
<path class="st0" d="M197.2,64.6l3-14.3h0.3l-3,14.3H197.2z"/>
<path class="st0" d="M208.5,62.5c-0.2,1.2-0.4,1.9-0.4,2.1h-0.3c0-0.4,0.3-1.5,0.4-2c-0.6,1.4-2.1,2.3-3.7,2.2
	c-1.3,0.2-2.5-0.8-2.7-2.1c0-0.1,0-0.2,0-0.3c0-1.7,1.1-2.6,3-3c1.4-0.2,2.8-0.3,4.1-0.3l0.2-0.9c0.3-1.3,0-2.9-2.4-2.9
	c-1.5-0.1-2.9,0.9-3.2,2.4h-0.3c0.3-1.7,1.9-2.9,3.6-2.7c2.4,0,3,1.5,2.7,3.2L208.5,62.5z M208.8,59.4c-1.4,0-2.7,0-4.1,0.3
	c-1.5,0.3-2.6,1.1-2.6,2.7c0,1.2,1,2.1,2.1,2.1c0.1,0,0.2,0,0.2,0c2.5,0,3.6-1.6,4-3.9L208.8,59.4z"/>
<path class="st0" d="M225.3,62c-0.6,1.7-2.2,2.9-4.1,2.8c-1.9,0-3.1-1.2-3.1-3.6c0-3.3,1.9-6.2,4.7-6.2c1.5-0.2,2.9,0.9,3.1,2.4
	c0,0.2,0,0.4,0,0.6h-0.3c0.1-1.4-0.9-2.6-2.3-2.7c-0.2,0-0.4,0-0.5,0c-2.7,0-4.3,3-4.3,5.9c0,1.9,0.9,3.3,2.9,3.3
	c1.6,0,3.1-1,3.6-2.5L225.3,62z"/>
<path class="st0" d="M234.9,62.5c-0.2,1.2-0.4,1.9-0.4,2.1h-0.3c0-0.4,0.3-1.5,0.4-2c-0.6,1.4-2.1,2.3-3.7,2.2
	c-1.3,0.2-2.5-0.8-2.7-2.1c0-0.1,0-0.2,0-0.3c0-1.7,1.1-2.6,2.9-3c1.4-0.2,2.8-0.3,4.1-0.3l0.2-0.9c0.3-1.3,0-2.9-2.4-2.9
	c-1.5-0.1-2.9,0.9-3.2,2.4h-0.3c0.3-1.7,1.9-2.9,3.6-2.7c2.4,0,3,1.5,2.7,3.2L234.9,62.5z M235.2,59.4c-1.4,0-2.7,0-4.1,0.3
	c-1.5,0.3-2.6,1.1-2.6,2.7c0,1.2,1,2.1,2.1,2.1c0.1,0,0.2,0,0.2,0c2.5,0,3.6-1.6,4-3.9L235.2,59.4z"/>
<path class="st0" d="M240.4,57.5c0.2-0.9,0.4-2.1,0.5-2.3h0.3c-0.1,0.4-0.2,1.2-0.5,2.4c0.7-1.5,2.2-2.5,3.9-2.6
	c1.5,0,3.1,0.8,2.4,3.8l-1.2,5.8h-0.4l1.3-6c0.4-1.9-0.1-3.3-2.1-3.3c-2.2,0-3.8,1.9-4.2,4.1l-1.1,5.2h-0.4L240.4,57.5z"/>
<path class="st0" d="M260.2,50.4l-2.6,12c-0.1,0.7-0.3,1.8-0.4,2.3h-0.3c0.1-0.4,0.3-1.6,0.5-2.4c-0.6,1.6-2.2,2.6-3.9,2.6
	c-1.6,0-3.1-1-3.1-3.5c0-3.4,2-6.3,4.8-6.3c2.4,0,3.1,1.5,3.2,2.4l1.5-7L260.2,50.4z M250.8,61.3c0,2.2,1.2,3.2,2.8,3.2
	c2.3,0,3.7-1.9,4.3-4.5c0.5-2.1,0.5-4.6-2.7-4.6C252.7,55.3,250.8,58,250.8,61.3z"/>
<path class="st0" d="M262.2,59.8c-0.1,0.5-0.1,1-0.1,1.4c0,2.1,1.1,3.3,2.9,3.3c1.6,0,3.1-0.9,3.7-2.4h0.4c-0.7,1.7-2.3,2.7-4.1,2.7
	c-2.3,0-3.2-1.6-3.2-3.5c0-3.7,2-6.3,4.9-6.3c1.7-0.1,3.1,1.2,3.2,2.8c0,0.2,0,0.3,0,0.5c0,0.5-0.1,1-0.2,1.5H262.2z M269.4,59.5
	c0.1-0.4,0.1-0.8,0.1-1.2c0-1.6-0.7-3-2.9-3s-3.8,1.6-4.3,4.1L269.4,59.5z"/>
<path class="st0" d="M272.5,64.6l3-14.3h0.3l-3,14.3H272.5z"/>
<path class="st0" d="M283.9,62.5c-0.2,1.2-0.4,1.9-0.4,2.1h-0.4c0-0.4,0.3-1.5,0.4-2c-0.6,1.4-2.1,2.3-3.7,2.2
	c-1.3,0.2-2.5-0.8-2.7-2.1c0-0.1,0-0.2,0-0.3c0-1.7,1.1-2.6,2.9-3c1.4-0.2,2.8-0.3,4.1-0.3l0.2-0.9c0.3-1.3,0-2.9-2.4-2.9
	c-1.5-0.1-2.9,0.9-3.2,2.4h-0.3c0.3-1.7,1.9-2.9,3.6-2.7c2.4,0,3,1.5,2.7,3.2L283.9,62.5z M284.2,59.4c-1.4,0-2.7,0-4.1,0.3
	c-1.5,0.3-2.6,1.1-2.6,2.7c0,1.2,1,2.1,2.1,2.1c0.1,0,0.2,0,0.2,0c2.5,0,3.6-1.6,4-3.9L284.2,59.4z"/>
<path class="st0" d="M289.2,58.4c0.4-2.1,0.5-2.6,0.6-3.2h0.3c0,0.4-0.2,1.5-0.5,2.7c0.8-1.6,2.3-2.7,4.1-2.9l-0.1,0.4
	c-1.9,0.1-3.9,2-4.3,4.2l-1.1,5.1h-0.4L289.2,58.4z"/>
<path class="st0" d="M297,55.2h0.4l-2,9.4h-0.3L297,55.2z M298,50.4h0.4l-0.4,1.7h-0.3L298,50.4z"/>
<path class="st0" d="M306.4,62.5c-0.2,1.2-0.4,1.9-0.4,2.1h-0.3c0-0.4,0.3-1.5,0.4-2c-0.6,1.4-2.1,2.3-3.7,2.2
	c-1.3,0.2-2.5-0.8-2.7-2.1c0-0.1,0-0.2,0-0.3c0-1.7,1.1-2.6,3-3c1.4-0.2,2.8-0.3,4.1-0.3l0.2-0.9c0.3-1.3,0-2.9-2.4-2.9
	c-1.5-0.1-2.8,0.9-3.1,2.4h-0.3c0.3-1.7,1.9-2.9,3.6-2.7c2.4,0,3,1.5,2.7,3.2L306.4,62.5z M306.7,59.4c-1.4,0-2.7,0-4.1,0.3
	c-1.5,0.3-2.6,1.1-2.6,2.7c0,1.2,1,2.1,2.1,2.1c0.1,0,0.1,0,0.2,0c2.5,0,3.6-1.6,4-3.9L306.7,59.4z"/>
<text transform="matrix(1 2.443458e-03 -2.443458e-03 1 25.66 42.51)" class="st0 st1 st2 st3">Enrolémonos</text>
<path class="st0" d="M7.2,61.5l-1.6,0c0,0,0,0.1,0,0.1L7.2,61.5z"/>
<path class="st0" d="M8.8,60.4H8.3c0.1,0,0.1,0.1,0.1,0.1L8.8,60.4z"/>
<path class="st0" d="M5.6,61.5c0.1,0.4,0.8,0.7-0.1,1.1L2,62.5c-0.9,0.2,0,0.4,0,0.6c-0.6-0.1-1.2-0.1-1.8,0
	c-0.6,0.2,0.4,0.5,2.1,0.6C6.1,62.8,15.8,62.6,5.6,61.5z"/>
<path class="st0" d="M12.7,60.9L8,60.8c-0.5,0.2-1.1,0.4-0.7,0.7C9.1,61.5,10.9,61.3,12.7,60.9z"/>
<path class="st0" d="M332.5,77.4c0-0.1,0.1-0.1,0.9,0H332.5c0,0.1,0,0.1-0.4,0.2c3.1-0.2,6.6-0.4,10.1-0.5l1.3-0.4
	c-8.6,0.3-17.2,0.6-24.2,1.3C324.3,77.8,327.7,77.6,332.5,77.4z"/>
<path class="st0" d="M344.2,76.1h0.9C344.3,76,344.2,76,344.2,76.1z"/>
<path class="st0" d="M191.1,82.7c-5.3,0.2-10,0.7-14.7,1c10-0.4,20.3-0.9,27.9-1.5L191.1,82.7z"/>
<path class="st0" d="M152.7,84.6c5.8,0.4,11.6,0.5,17.4,0.1c-5.3,0.1-10.6,0-15.9-0.1L152.7,84.6z"/>
<path class="st0" d="M160.1,84.3c5.4,0.1,10.9-0.1,16.3-0.5L160.1,84.3z"/>
<path class="st0" d="M279.1,72.6c3.9-0.4,6.3-0.6,7.7-0.7c0.6-0.2,1.4-0.4,2.5-0.6h-0.7l-12.4,0.8c-1.7,0.2-3.3,0.4-4.7,0.6
	L279.1,72.6z"/>
<path class="st0" d="M286.8,72C281.6,73.3,292.1,71.7,286.8,72z"/>
<path class="st0" d="M261.4,78.8h-0.6L259,79L261.4,78.8z"/>
<path class="st0" d="M212.4,77.5c3.5-0.1,6.9-0.3,10.4-0.5c-7,0.3-14.1,0.6-20,1.1c0.9,0,1.8,0,2.6,0
	C207.7,77.8,210.1,77.6,212.4,77.5z"/>
<path class="st0" d="M288.8,77.1c-9.5,0.5-18.9,1.1-28,1.7c-18.4,0.6-36.2,1.3-52.1,2.6c-7,0.6-16.7,1-26.4,1.5s-19.4,0.7-26.6,1.2
	c1.5,0.1,3,0.2,4.4,0.2l-5.9,0.2c-5.9-0.2-11.8-0.6-17.6-1.2c-2.9-0.3-5.9-0.7-8.8-1.2l-4.4-0.8c-1-0.2-2-0.5-2.9-0.8
	c-1.1-0.4-2.2-1-3.1-1.7c-0.6-0.4-1.2-1-1.7-1.5c-0.3-0.3-0.5-0.7-0.8-1.1c-0.3-0.4-0.5-0.9-0.6-1.3c-0.4-1-0.5-2-0.5-3
	c0-1,0.2-1.9,0.6-2.8c0.5-1.2,1.2-2.3,2.1-3.2l0.2-0.2l0.1-0.1l0.2-0.2c0.2-0.2,0.5-0.5,0.7-0.7c0.4-0.4,0.8-0.7,1.1-0.9
	c0.4-0.3,0.9-0.6,1.3-0.8c0.2-0.1,0.4-0.3,0.6-0.5c0.1-0.1,0.2-0.2,0.1-0.3c-0.1-0.1-0.2-0.2-0.3-0.2c-0.5-0.1-1-0.2-1.5-0.1
	c-0.1,0-0.3,0-0.5,0l-0.2,0l-0.7,0l-0.7,0.1c-0.2,0-0.4,0-0.9,0.1c-0.8,0-1.6,0.1-2.5,0.1c-3.5,0.1-7,0.2-10.5,0.3c0,0,0,0,0.1,0.1
	c-14.4,0.6-28.6,1.3-43.7,2.1c-7,0.3-14.1,0.4-21.2,0.5c-2.6,0-2.6-0.4-4.4-0.4c-7.1-0.4-12.4-0.8-20.4-1.1v-0.3
	c-1.2,0-2.3,0-3.2-0.1c3.9-1,13.5-1.3,3.3-2.2l0,0l1.6-0.1h0.2l0,0c1.8-0.1,3.6-0.3,5.3-0.6h-4.6c0.3-0.1,0.5-0.3,0.3-0.4l0.4-0.1
	h1.3c0.2,0,0.3-0.1,0.5-0.2c4-0.4,10.4-0.6,9.2-1c-2.4-0.1-4.8-0.1-7.2,0.1c-0.2,0-0.4-0.1-0.7-0.1c4.4-0.1,0-0.7,2.6-0.8
	c3.5,0,7-0.1,10.5-0.1c14.3-0.2,26.3-0.6,40.4-1.4l1.9-0.1c6.8-0.4,13.2-0.6,19.9-0.8l-1.3,0.2c5.4-0.1,10.7-0.3,16.1-0.5
	c3.4-0.2,6.4-0.3,10.5-0.4h3.3c1.1,0,2.2,0,3.2,0.1c1.9,0.1,3.7,0.5,5.5,1c0.4,0.1,0.8,0.3,1.2,0.4c0.4,0.2,0.7,0.4,1.1,0.6
	c0.4,0.2,0.7,0.5,0.9,0.9c0.3,0.4,0.5,0.8,0.5,1.3c-0.1,0.8-0.4,1.5-0.9,2.1c-0.5,0.6-1,1.2-1.5,1.8c-0.6,0.6-1.3,1.2-2,1.8
	c-0.8,0.6-1.7,1.2-2.8,1.9l-3.1,1.9c-0.5,0.3-1,0.6-1.6,1c-0.4,0.3-0.8,0.5-1.1,0.9c-0.5,0.4-0.9,1-1.3,1.5
	c-0.2,0.4-0.2,0.5-0.1,0.5s0.2,0.3,0.7,0.6c0.6,0.3,1.2,0.6,1.8,0.8c0.4,0.1,0.7,0.2,1.1,0.2l1.3,0.2l2.6,0.4
	c1.8,0.3,3.5,0.5,5.3,0.7c7.1,0.9,14.3,1.3,21.7,1.5c-6.1,0-12.2-0.4-18.2-1l-4.1-0.6l-4-0.6l4.1,0.6c1.4,0.2,2.7,0.3,4.1,0.5
	c10.6,1.3,21.7,1.8,29.9,1c0.6,0.1,1.2,0.2,1.8,0.2c6.1,0,12.2,0,17.5-0.5c0-0.1,2.6-0.1,1.7-0.3c5.2-0.2,11.4-0.4,16.7-0.8
	c2.3-0.1,4.5-0.4,6.8-0.7l57.8-3.2c5-0.2,10.9-0.4,16-0.6c-7.5,0.5-15.2,1-23.1,1.5c-7.6,0.1-14.9,0.4-20.9,1l-4.2,0.4l25.1-1.4
	l13.6-0.3h-0.3l-10.7,0.7c-6.8,0.1-13.3,0.3-18.9,0.8l-2,0.2l-4.2,0.4l15.6-0.9l9.5-0.5l6-0.1l-0.6,0.1c-1.8,0.1-6.6,1.4-4,1.7
	c6.8-0.2,14.9-0.6,21.3-0.9l8-0.4l2.3-0.1h0.6h0.2c0.9,0.4-22.3,1.5-21.4,1.6h3.9l-3.5,0.4c-2.6,0.2-6.1,0.2-7.9,0.4
	c-6.1,0.8-13.2,0.8-20.2,1.4l-14.9,1.5c0,0.2-2.6,0.2-1.8,0.3c-5,0.1-10.7,0.3-12.8,0.9h-0.4c-0.4,0-0.8,0.1-1.4,0.1
	c-8.2,0.1-14,0.8-21.5,1.4c-2.6,0.1-5.2,0.2-7.9,0.3c1.8,0,4.4,0,6.2-0.2l1.7-0.1c6.7-0.3,13-0.8,19.3-1.2l2.1-0.3h1.4l0.4-0.1
	c6.1-0.5,12.9-0.8,18.1-1.2c9.7-0.6,20.1-0.8,30.1-1l-14.6,1l17.1-1l2.5-0.1l5.3-0.1h-4.9l9.7-0.6c17.6-1,35.8-1.7,53.6-2.1
	c-0.3,0.1-0.7,0.3-1.2,0.4c-8.6,0.3-17.2,0.6-24.2,1.3c5-0.1,8.4-0.4,13.2-0.6c0,0.1,0,0.1-0.3,0.2c3-0.2,6.6-0.4,10.1-0.5
	c-1.1,0.3-2.3,0.6-3.6,0.9c-1.8,0.2-4.4,0.3-7,0.5c-11.4,0.5-22.1,0.8-33.4,1.3l-29.8,0.8C271.1,78.3,280,77.8,288.8,77.1z
	 M32.3,61.6l2.8-0.2l-0.4-0.1C33.9,61.4,33.1,61.4,32.3,61.6z M52.9,61.3c-6,0-14,0.4-21.7,0.6c0,0-0.1,0.1-0.1,0.1
	C37.6,62,45.6,61.6,52.9,61.3L52.9,61.3z M77.1,62.5H77l0,0H77.1z M145.6,80.9c-3.9-0.1-7.8-0.3-11.7-0.8c-2.1-0.3-4.2-0.5-6.4-0.9
	l-3.3-0.5c-1.3-0.2-2.5-0.6-3.7-1.1c-0.8-0.4-1.6-0.9-2.3-1.5c-0.9-0.8-1.5-1.9-1.8-3.1c-0.1-0.7-0.1-1.3,0-2
	c0.1-0.6,0.4-1.2,0.7-1.8c0.3-0.5,0.6-0.9,0.9-1.3l0.5-0.5c0.1-0.2,0.4-0.4,0.6-0.6c0.6-0.6,1.2-1.1,1.9-1.5l1.1-0.8l2-1.4
	c-0.5,0.2-1,0.5-1.5,0.6c0.6-0.3,1.2-0.7,1.7-1.1c0.4-0.4,0.8-0.7,0.8-1.2c0-0.3-0.3-0.5-0.6-0.6c-0.3-0.1-0.6-0.2-0.9-0.3
	c-0.6-0.1-1.2-0.1-1.8-0.2c-0.3,0.2-0.7,0.3-1.1,0.3c-0.5,0-0.9,0-1.3,0H118h-1.1h-1.2c-1,0-1.9,0.1-2.8,0.1
	c-4.4,0.2-8.7,0.3-12.2,0.6c-0.9,0-2.6,0.4-4.4,0.5l-6.4,0.3l0.3,0.1c1.8-0.1,3.5-0.1,5.3-0.2c5.3-0.4,11.4-0.8,16.6-1l4.7-0.2
	l1.7-0.1l0.9,0c1.3-0.1,2.6-0.1,3.9,0c0.4,0.1,0.7,0.2,1,0.4c0.3,0.2,0.3,0.5,0.2,0.8c0,0,0,0,0,0.1c-0.4,0.5-0.8,0.9-1.3,1.2
	c-0.5,0.4-1,0.7-1.6,1.1l-0.9,0.6l-0.4,0.3l-0.6,0.5c-0.3,0.3-0.6,0.6-0.9,0.9c-0.2,0.2-0.4,0.4-0.5,0.5l-0.4,0.4
	c-0.6,0.8-1.1,1.6-1.5,2.5c-0.2,0.6-0.4,1.2-0.4,1.9c0,0.3,0,0.7,0,1c0,0.3,0.1,0.7,0.2,1c0.4,1.2,1.1,2.2,2,3
	c1.1,0.9,2.3,1.5,3.7,1.9c0.6,0.2,1.2,0.3,1.8,0.5c0.6,0.1,1.1,0.2,1.6,0.2c2.1,0.3,4.2,0.6,6.3,0.9c3.5,0.5,7,0.7,10.5,0.7
	C143.2,80.9,144.4,80.9,145.6,80.9z M155.6,77.3c-9.3,0.1-18.7-0.7-27.9-2.4l-3.1-0.5c-1.1-0.2-2.1-0.5-3-1
	c-0.3-0.2-0.6-0.4-0.8-0.7c-0.1-0.2-0.2-0.4-0.1-0.7c0.1-0.5,0.4-0.9,0.7-1.2c0.3-0.5,0.7-0.9,1.2-1.3c0.2-0.2,0.6-0.5,0.9-0.7
	l1-0.7l1.8-1.2c0.9-0.6,1.7-1.2,2.5-1.9c1.1-1,1.1-1.3,0-0.9c-1.2,1.1-2.5,2.1-3.9,3c-0.5,0.4-1.1,0.7-1.6,1.1
	c-0.3,0.2-0.6,0.4-0.9,0.6s-0.5,0.4-0.6,0.6c-0.2,0.2-0.4,0.4-0.6,0.6c-0.2,0.2-0.4,0.5-0.6,0.7c-0.3,0.4-0.5,0.8-0.6,1.3
	c0,0.4,0.1,0.8,0.3,1.1c0.4,0.4,0.8,0.8,1.3,1c0.6,0.3,1.2,0.5,1.9,0.7c0.3,0.1,0.7,0.2,1,0.2l1.2,0.2c3.1,0.5,6.4,1,9.5,1.5
	C147.8,78.3,158.6,78.4,155.6,77.3z M228.6,74.4c-3.7,0.3-7.2,0.5-11.4,0.6L228.6,74.4z M191.4,79.5c11.4-1,23.7-1.5,35.1-2.2
	c8.8-0.5,18.5-0.3,26.3-1.2v-0.3l-0.9,0.1c-3.1,0-5.6-0.1-8.2-0.1h0.5h-0.8c-1.7,0-3.5,0-5.6,0.2l-2.9,0.2c-11,0.5-22.3,1-32.2,1.9
	c-6.1,0.5-11.4,1.1-17.5,1.5C187,79.6,189.6,79.6,191.4,79.5z"/>
<path class="st0" d="M272.5,77.4l11.5-0.7l8.9-0.6c14.1-0.9,30.6-1.2,45.7-1.9c0.4-0.3,0.5-0.6-0.1-0.9c-16.5,0.2-32.9,1.2-49.3,1.5
	h-0.4c-7,0.8-18.4,0.9-27.2,1.7s-17.5,1.3-26.3,2C248,78.1,260,77.6,272.5,77.4z"/>
<path class="st0" d="M170.1,84.7c3.5,0,7-0.1,10.5-0.2c9.8-0.4,18.4-1,27.1-1.6c-6.5,0.2-13,0.5-19.5,0.6S176,84.3,170.1,84.7z"/>
<path class="st0" d="M214.8,82.3l-7.1,0.5l28.5-1.1c15.6-0.9,31.2-1.6,46.8-2.6l5.3-0.3c-29,0.7-58,1.5-82.5,3.4l-1.4,0.1
	c11.7-0.4,23.3-0.9,34.9-1.4L214.8,82.3z"/>
<path class="st0" d="M268.9,77.6l2.5-0.1l2.9-0.2h-1.8L268.9,77.6z"/>
<path class="st0" d="M243.7,75.8h-0.3l-8.5,0.4c-3.9,0.3-8,0.6-12.2,0.8C230.3,76.7,237.9,76.3,243.7,75.8z"/>
<path class="st0" d="M219.3,74.2l-3.5,0.1l-1.6,0.2l2.5,0L219.3,74.2z"/>
<path class="st0" d="M167.6,76.8c15.4-0.3,30-1.3,44.5-2.1l2.1-0.3c-9.7,0.2-19.4,0.6-28.2,1.4c-1.8,0.1-4.4,0.5-6.1,0.5
	c-8.3,0.2-16.1,0.5-23.9,0.4c3.7,0.1,7.5,0.1,11.4,0L167.6,76.8z"/>
</svg>
